<svg width="201" height="201" viewBox="0 0 201 201" fill="none" xmlns="http://www.w3.org/2000/svg">
<path d="M89.3063 190.872C89.8166 191.586 90.0803 192.446 90.0573 193.324C90.0346 194.201 89.7266 195.047 89.1799 195.733C88.6333 196.42 87.8776 196.909 87.0279 197.128C86.1779 197.346 85.2799 197.282 84.4699 196.944C62.5609 187.654 36.9609 167.544 36.9609 132.926C36.9609 90.508 79.2519 74.3264 89.5973 41.2717C92.9889 30.897 94.5876 20.02 94.3246 9.10809C94.3063 8.48049 94.4863 7.86305 94.8393 7.34382C95.1923 6.82459 95.7003 6.43005 96.2906 6.21642C96.8813 6.00282 97.5239 5.98105 98.1276 6.15422C98.7309 6.32739 99.2646 6.68665 99.6519 7.18082C111.714 22.1231 118.61 40.5717 119.306 59.7627C120.67 88.999 89.3793 112.49 79.0519 136.126C69.7609 157.744 80.5063 178.69 89.3063 190.872Z" fill="#2DD4BF"/>
<path d="M164.278 173.259C164.278 177.078 162.761 180.741 160.06 183.442C157.359 186.143 153.696 187.661 149.876 187.661C146.056 187.661 142.393 186.143 139.692 183.442C136.991 180.741 135.474 177.078 135.474 173.259C135.477 172.105 135.63 170.958 135.927 169.843L114.365 159.104C111.725 161.587 108.237 162.971 104.613 162.972C100.793 162.972 97.1299 161.454 94.4289 158.753C91.7283 156.052 90.2109 152.389 90.2109 148.57C90.2109 144.75 91.7283 141.087 94.4289 138.386C97.1299 135.685 100.793 134.168 104.613 134.168C108.237 134.169 111.725 135.552 114.365 138.036L135.927 127.296C135.63 126.182 135.477 125.034 135.474 123.881C135.474 121.032 136.319 118.248 137.901 115.879C139.484 113.511 141.733 111.665 144.365 110.575C146.996 109.485 149.892 109.2 152.686 109.755C155.479 110.311 158.046 111.683 160.06 113.697C162.074 115.711 163.445 118.277 164.001 121.071C164.557 123.865 164.272 126.76 163.182 129.392C162.092 132.024 160.246 134.273 157.877 135.855C155.509 137.438 152.724 138.283 149.876 138.283C146.251 138.282 142.764 136.898 140.124 134.415L118.562 145.154C119.165 147.391 119.165 149.748 118.562 151.985L140.124 162.725C142.764 160.241 146.251 158.858 149.876 158.857C153.696 158.857 157.359 160.374 160.06 163.075C162.761 165.776 164.278 169.439 164.278 173.259Z" fill="#2DD4BF"/>
</svg>
